HIERARCHY
ROOT Hips
{
	OFFSET 0.00000 0.00000 0.00000
	CHANNELS 6 Xposition Yposition Zposition Zrotation Yrotation Xrotation 
	JOINT LHipJoint
	{
		OFFSET 0 0 0
		CHANNELS 3 Zrotation Yrotation Xrotation
		JOINT LeftUpLeg
		{
			OFFSET 1.66553 -1.82942 0.76350
			CHANNELS 3 Zrotation Yrotation Xrotation
			JOINT LeftLeg
			{
				OFFSET 2.41740 -6.64177 0.00000
				CHANNELS 3 Zrotation Yrotation Xrotation
				JOINT LeftFoot
				{
					OFFSET 2.71614 -7.46254 0.00000
					CHANNELS 3 Zrotation Yrotation Xrotation
					JOINT LeftToeBase
					{
						OFFSET 0.08005 -0.21993 1.82495
						CHANNELS 3 Zrotation Yrotation Xrotation
						End Site
						{
							OFFSET 0.00000 -0.00000 0.93441
						}
					}
				}
			}
		}
	}
	JOINT RHipJoint
	{
		OFFSET 0 0 0
		CHANNELS 3 Zrotation Yrotation Xrotation
		JOINT RightUpLeg
		{
			OFFSET -1.63725 -1.82942 0.76350
			CHANNELS 3 Zrotation Yrotation Xrotation
			JOINT RightLeg
			{
				OFFSET -2.40538 -6.60872 0.00000
				CHANNELS 3 Zrotation Yrotation Xrotation
				JOINT RightFoot
				{
					OFFSET -2.73312 -7.50919 0.00000
					CHANNELS 3 Zrotation Yrotation Xrotation
					JOINT RightToeBase
					{
						OFFSET -0.15567 -0.42769 1.93504
						CHANNELS 3 Zrotation Yrotation Xrotation
						End Site
						{
							OFFSET -0.00000 -0.00000 1.00100
						}
					}
				}
			}
		}
	}
	JOINT LowerBack
	{
		OFFSET 0 0 0
		CHANNELS 3 Zrotation Yrotation Xrotation
		JOINT Spine
		{
			OFFSET 0.00326 2.30118 -0.13017
			CHANNELS 3 Zrotation Yrotation Xrotation
			JOINT Spine1
			{
				OFFSET 0.02887 2.30677 0.00834
				CHANNELS 3 Zrotation Yrotation Xrotation
				JOINT Neck
				{
					OFFSET 0 0 0
					CHANNELS 3 Zrotation Yrotation Xrotation
					JOINT Neck1
					{
						OFFSET 0.12946 1.68326 0.00713
						CHANNELS 3 Zrotation Yrotation Xrotation
						JOINT Head
						{
							OFFSET -0.24364 1.67243 -0.16079
							CHANNELS 3 Zrotation Yrotation Xrotation
							End Site
							{
								OFFSET -0.09229 1.70819 -0.06383
							}
						}
					}
				}
				JOINT LeftShoulder
				{
					OFFSET 0 0 0
					CHANNELS 3 Zrotation Yrotation Xrotation
					JOINT LeftArm
					{
						OFFSET 3.28104 0.69567 -0.00556
						CHANNELS 3 Zrotation Yrotation Xrotation
						JOINT LeftForeArm
						{
							OFFSET 5.70706 -0.00000 -0.00000
							CHANNELS 3 Zrotation Yrotation Xrotation
							JOINT LeftHand
							{
								OFFSET 3.33243 -0.00000 0.00000
								CHANNELS 3 Zrotation Yrotation Xrotation
								JOINT LeftFingerBase
								{
									OFFSET 0 0 0
									CHANNELS 3 Zrotation Yrotation Xrotation
									JOINT LeftHandIndex1
									{
										OFFSET 0.79269 -0.00000 0.00000
										CHANNELS 3 Zrotation Yrotation Xrotation
										End Site
										{
											OFFSET 0.63909 -0.00000 0.00000
										}
									}
								}
								JOINT LThumb
								{
									OFFSET 0 0 0
									CHANNELS 3 Zrotation Yrotation Xrotation
									End Site
									{
										OFFSET 0.64884 -0.00000 0.64884
									}
								}
							}
						}
					}
				}
				JOINT RightShoulder
				{
					OFFSET 0 0 0
					CHANNELS 3 Zrotation Yrotation Xrotation
					JOINT RightArm
					{
						OFFSET -3.40955 0.64424 0.14010
						CHANNELS 3 Zrotation Yrotation Xrotation
						JOINT RightForeArm
						{
							OFFSET -5.88176 -0.00000 -0.00000
							CHANNELS 3 Zrotation Yrotation Xrotation
							JOINT RightHand
							{
								OFFSET -3.28156 -0.00000 0.00000
								CHANNELS 3 Zrotation Yrotation Xrotation
								JOINT RightFingerBase
								{
									OFFSET 0 0 0
									CHANNELS 3 Zrotation Yrotation Xrotation
									JOINT RightHandIndex1
									{
										OFFSET -0.86313 -0.00000 0.00000
										CHANNELS 3 Zrotation Yrotation Xrotation
										End Site
										{
											OFFSET -0.69587 -0.00000 0.00000
										}
									}
								}
								JOINT RThumb
								{
									OFFSET 0 0 0
									CHANNELS 3 Zrotation Yrotation Xrotation
									End Site
									{
										OFFSET -0.70650 -0.00000 0.70650
									}
								}
							}
						}
					}
				}
			}
		}
	}
}
MOTION
Frames: 15
Frame Time: .0083333
11.5743 13.9971 -18.8171 0 0 0 0 0 0 -21 0 0 0 0 0 0 0 0 0 0 0 0 0 0 21 0 0 0 0 0 0 0 0 0 0 0 0 0 0 0 0 0 0 0 0 0 0 -16 0 0 21 0 0 11 0 0 0 -8 0 0 0 0 0 0 0 0 0 0 0 0 0 0 0 0 0 0 0 0 8 0 0 0 0 0 0 0 0 0 0 0 0 0 0 0 0 0
11.5743 13.9971 -18.8171 -2.4931 21.7249 15.3694 0.0000 0.0000 0.0000 18.0045 -5.6537 -68.5588 10.0040 17.4121 59.5018 0.1686 -9.2933 -9.1943 6.9035 -15.2501 -48.5085 0.0000 0.0000 0.0000 -3.0834 -10.3858 -45.5177 -14.5941 -19.2844 74.0110 -4.1117 -2.3577 -39.2897 -2.9610 10.6316 -31.0473 1.3871 1.2186 27.8822 -1.4841 1.9512 8.9277 -3.0486 1.0343 -5.3100 15.9964 7.8203 6.3846 -24.0191 8.8078 -23.1373 -11.4260 5.3846 -5.8000 -0.0000 0.0000 0.0000 -74.8157 19.4219 9.7696 95.0335 -59.9040 -64.3577 -0.0000 0.0000 -25.3147 6.5561 19.6600 2.2143 -7.1250 0.0000 -0.0000 -21.0767 48.5671 -1.9339 -0.0000 0.0000 0.0000 71.7514 -2.7052 21.0119 -129.4542 53.2133 -93.3893 0.0000 -0.0000 -53.3258 -27.0241 13.3008 -6.6928 7.1250 -0.0000 -0.0000 0.2279 -15.1172 0.1606
11.6143 13.9796 -18.7977 -2.6138 21.6657 15.8156 0.0000 0.0000 0.0000 18.1122 -5.3469 -69.3122 10.2250 17.5345 60.2379 0.2645 -8.3604 -10.1435 6.6772 -15.0539 -47.6426 0.0000 0.0000 0.0000 -3.0658 -10.6560 -45.9933 -14.5933 -19.2842 74.0086 -4.1609 -1.6463 -39.2855 -2.8750 10.4899 -30.5781 1.2302 1.2869 27.9090 -1.5978 1.9935 9.2094 -3.0902 1.0649 -5.0067 15.9011 7.7735 6.2589 -23.9967 8.6507 -23.8682 -11.4689 5.3225 -6.0436 0.0000 -0.0000 0.0000 -75.7713 19.5545 10.7430 89.4558 -59.9989 -59.5287 -0.0000 0.0000 -24.8796 3.4533 22.8937 1.3448 -7.1250 0.0000 -0.0000 -25.5498 51.0627 -4.0415 0.0000 -0.0000 0.0000 73.2962 -4.3222 22.4952 -126.8611 54.1856 -91.2993 0.0000 -0.0000 -53.2851 -28.5418 12.8823 -6.9141 7.1250 -0.0000 -0.0000 -0.8466 -15.3880 -0.5917
11.6581 13.9636 -18.7690 -2.5933 21.8151 16.2914 0.0000 0.0000 0.0000 18.1229 -5.2451 -70.0722 10.4524 17.6565 60.9901 0.3437 -7.4409 -10.9248 6.3571 -14.7657 -46.3988 0.0000 0.0000 0.0000 -3.1471 -11.0689 -46.2384 -14.5634 -19.2761 73.9179 -4.2725 -0.4208 -39.4327 -2.6369 10.0826 -29.2447 1.0255 1.3551 27.7914 -1.6879 2.0285 9.5008 -3.0700 1.0929 -4.6276 15.7277 7.6697 6.3762 -23.7989 8.4621 -24.6141 -11.4562 5.2432 -6.3659 -0.0000 0.0000 0.0000 -76.5086 19.5241 11.8949 82.2301 -59.7706 -53.2762 -0.0000 0.0000 -23.8618 0.7955 24.3835 0.3284 -7.1250 0.0000 -0.0000 -28.8786 51.9491 -5.3079 -0.0000 0.0000 0.0000 74.7927 -6.1569 23.7339 -124.1164 55.1093 -89.0605 0.0000 -0.0000 -53.3124 -29.5407 12.5909 -7.0424 7.1250 -0.0000 -0.0000 -1.5580 -15.5846 -1.0826
11.7075 13.9379 -18.7384 -2.7301 21.8214 16.7554 0.0000 0.0000 0.0000 18.1206 -4.7999 -70.8603 10.6773 17.7735 61.7290 0.4291 -6.3064 -11.8071 6.4023 -14.8072 -46.5759 0.0000 0.0000 0.0000 -3.1092 -11.2097 -46.5865 -14.5306 -19.2671 73.8185 -4.3106 0.0800 -39.4679 -2.5841 9.9892 -28.9419 0.5180 0.9427 27.8512 -1.6486 1.3949 9.9258 -2.5347 0.7910 -4.2329 13.9078 8.3560 5.2111 -23.1056 9.1351 -25.0838 -10.8147 5.6409 -6.3163 -0.0000 -0.0000 0.0000 -78.6459 19.3692 10.9062 74.7528 -59.1031 -46.8353 -0.0000 0.0000 -22.6745 -1.2477 25.7152 -0.5414 -7.1250 0.0000 -0.0000 -31.6211 52.7510 -6.5591 -0.0000 -0.0000 0.0000 75.1298 -6.7217 26.6235 -120.3483 56.2164 -85.9486 0.0000 -0.0000 -53.9453 -30.9978 13.1313 -7.7725 7.1250 -0.0000 -0.0000 -2.4972 -14.7656 -1.7800
11.7607 13.9191 -18.7073 -3.1284 21.8624 16.9655 0.0000 0.0000 0.0000 18.2779 -4.2536 -71.4633 10.8903 17.8810 62.4249 0.5026 -5.0928 -12.6250 6.7052 -15.0786 -47.7504 0.0000 0.0000 0.0000 -2.7731 -11.2835 -46.7137 -14.4649 -19.2490 73.6193 -4.3078 0.0579 -39.4608 -2.6551 10.1146 -29.3487 0.9813 1.3502 27.9608 -1.8585 2.0069 9.8536 -3.2226 1.0955 -4.3090 15.0812 7.6840 6.2869 -23.3329 8.3905 -25.4444 -11.2499 5.2332 -6.7015 0.0000 -0.0000 0.0000 -77.8067 19.6721 13.2236 67.0393 -57.9111 -40.2549 -0.0000 0.0000 -21.4343 -4.0541 25.6053 -1.7544 -7.1250 0.0000 -0.0000 -34.0920 52.1744 -6.6578 0.0000 -0.0000 0.0000 77.1858 -9.3232 26.4538 -117.2468 57.0000 -83.3588 0.0000 -0.0000 -54.2005 -31.9400 11.1963 -6.9020 7.1250 -0.0000 -0.0000 -3.3506 -16.8645 -2.2383
11.8220 13.9164 -18.6714 -3.4070 22.1422 17.1278 0.0000 0.0000 0.0000 18.3852 -4.0432 -72.0146 11.0925 17.9800 63.0815 0.5349 -4.2105 -13.0237 6.6607 -15.0394 -47.5792 0.0000 0.0000 0.0000 -2.4729 -11.6437 -46.5352 -14.3427 -19.2147 73.2483 -4.3006 -0.1023 -39.4723 -2.7023 10.1968 -29.6165 1.0322 1.3204 28.1993 -1.8965 1.9856 9.9954 -3.2927 1.0908 -4.2601 15.2093 7.6574 6.2318 -23.3274 8.3542 -25.6164 -11.2860 5.2059 -6.7468 -0.0000 0.0000 0.0000 -78.0489 19.7962 14.0379 59.9661 -56.3009 -34.3129 -0.0000 0.0000 -19.8658 -6.5015 25.1487 -2.7727 -7.1250 0.0000 -0.0000 -35.9526 51.3833 -6.3477 -0.0000 0.0000 0.0000 78.0956 -10.8721 27.5290 -113.4778 57.8112 -80.1830 0.0000 -0.0000 -55.0688 -33.1761 9.8503 -6.3818 7.1250 -0.0000 -0.0000 -4.3551 -18.2797 -2.7774
11.8892 13.9205 -18.6298 -3.7187 22.3501 17.3593 0.0000 0.0000 0.0000 18.4771 -3.7456 -72.6055 11.2860 18.0722 63.7068 0.5582 -4.1662 -13.3106 6.3572 -14.7658 -46.3989 0.0000 0.0000 0.0000 -2.1416 -11.8664 -46.3719 -14.1729 -19.1656 72.7318 -4.2750 -0.4376 -39.4495 -2.7577 10.2920 -29.9276 0.9826 1.1618 28.2287 -1.9720 1.7745 10.1585 -3.2801 0.9949 -4.1034 15.1237 7.7838 6.2976 -23.2601 8.5063 -26.0654 -11.2938 5.2927 -6.8794 0.0000 -0.0000 0.0000 -78.6340 19.9722 14.0401 53.9572 -54.4720 -29.3655 -0.0000 0.0000 -18.5745 -8.5208 25.4177 -3.6794 -7.1250 0.0000 -0.0000 -37.9084 51.2672 -6.6678 0.0000 -0.0000 0.0000 78.5130 -12.0877 29.1015 -109.2982 58.5450 -76.6311 0.0000 -0.0000 -56.1381 -34.2078 8.8792 -5.9900 7.1250 -0.0000 -0.0000 -5.1872 -19.3059 -3.1936
11.9560 13.9251 -18.5799 -4.1435 22.4305 17.4445 0.0000 0.0000 0.0000 18.5425 -3.2159 -73.0399 11.4737 18.1592 64.3106 0.5852 -4.6077 -13.6207 6.2139 -14.6325 -45.8343 0.0000 0.0000 0.0000 -1.7263 -11.8550 -46.0511 -13.9697 -19.1048 72.1120 -4.2293 -0.9938 -39.4019 -2.8699 10.4813 -30.5500 0.6777 1.1037 28.4095 -1.9152 1.6315 10.3164 -3.0008 0.9224 -4.0316 14.9701 8.0132 5.9698 -23.3245 8.7483 -26.2166 -11.2727 5.4276 -6.8162 0.0000 0.0000 0.0000 -79.4014 20.2163 13.5902 48.7791 -52.4911 -25.2024 -0.0000 0.0000 -17.7605 -11.0233 26.1006 -4.8985 -7.1250 0.0000 -0.0000 -40.5653 51.3935 -7.4236 0.0000 0.0000 0.0000 78.5389 -13.0770 30.6838 -104.5683 59.1827 -72.5819 0.0000 -0.0000 -57.0410 -34.6422 9.5543 -6.5423 7.1250 -0.0000 -0.0000 -5.4135 -18.4470 -3.4377
12.0265 13.9342 -18.5210 -4.1885 22.4150 17.4997 0.0000 0.0000 0.0000 18.2298 -2.8554 -73.2430 11.6595 18.2430 64.9054 0.6085 -5.0546 -13.8882 5.9611 -14.3905 -44.8254 0.0000 0.0000 0.0000 -1.7571 -11.8907 -45.4824 -13.7480 -19.0358 71.4334 -4.1576 -1.6425 -39.2687 -3.0234 10.7329 -31.3842 0.2426 1.1758 28.5707 -2.1138 1.6056 10.5594 -2.9613 0.9131 -3.8411 14.7278 8.0572 5.4114 -22.7437 8.8299 -26.1861 -10.9669 5.4123 -6.7477 -0.0000 -0.0000 0.0000 -79.5820 20.3589 13.1708 44.3767 -50.4594 -21.7570 -0.0000 0.0000 -16.8962 -13.7487 27.5342 -6.4532 -7.1250 0.0000 -0.0000 -43.9964 52.0366 -9.0762 -0.0000 -0.0000 0.0000 78.9778 -14.0673 31.7295 -99.2546 59.6739 -68.0060 0.0000 -0.0000 -57.3453 -35.0501 10.8533 -7.5247 7.1250 -0.0000 -0.0000 -5.5353 -16.8380 -3.7121
12.1071 13.9468 -18.4646 -4.2542 22.4627 17.6452 0.0000 0.0000 0.0000 17.9385 -2.5845 -73.5510 11.8367 18.3207 65.4701 0.6376 -5.0745 -14.2194 5.9291 -14.3593 -44.6967 0.0000 0.0000 0.0000 -1.7922 -11.9172 -44.9255 -13.5107 -18.9589 70.7043 -4.1500 -1.6419 -39.2328 -2.9833 10.6679 -31.1679 0.0269 1.2372 28.4991 -2.3954 1.6209 10.7990 -3.1444 0.9307 -3.5340 14.6208 8.0158 5.1740 -22.1909 8.8314 -26.3048 -10.7414 5.3611 -6.7946 0.0000 0.0000 0.0000 -79.4299 20.3770 12.5712 40.3658 -48.2851 -18.7119 -0.0000 0.0000 -15.5181 -16.8563 27.8815 -8.0647 -7.1250 0.0000 -0.0000 -46.8668 51.7507 -9.5457 0.0000 0.0000 0.0000 79.2938 -15.1227 32.7032 -93.4433 59.9552 -62.9815 0.0000 -0.0000 -57.0889 -35.1096 11.1159 -7.7192 7.1250 -0.0000 -0.0000 -5.5423 -16.5151 -3.7559
12.1972 13.9533 -18.4140 -4.7178 22.7440 17.7603 0.0000 0.0000 0.0000 18.0602 -2.3147 -74.0636 12.0125 18.3959 66.0284 0.6651 -4.6787 -14.5332 6.2323 -14.6498 -45.9071 0.0000 0.0000 0.0000 -1.3824 -11.9656 -44.4038 -13.2557 -18.8725 69.9178 -4.1672 -1.4753 -39.2602 -2.8594 10.4639 -30.4925 0.3438 1.1547 28.3906 -2.6283 1.5858 10.8010 -3.5696 0.9276 -3.4657 14.8872 7.8330 5.5993 -21.7989 8.7173 -26.5503 -10.7067 5.2531 -6.9949 -0.0000 0.0000 0.0000 -78.9534 20.7395 11.9358 36.7375 -46.0137 -16.0509 -0.0000 0.0000 -14.2319 -20.2658 27.5974 -9.7064 -7.1250 0.0000 -0.0000 -49.3725 50.9457 -9.1607 -0.0000 0.0000 0.0000 79.2896 -16.4004 33.9855 -87.3484 59.9734 -57.7039 0.0000 -0.0000 -56.3718 -35.3589 10.2823 -7.2186 7.1250 -0.0000 -0.0000 -5.8212 -17.4786 -3.8239
12.2924 13.9634 -18.3556 -5.2001 23.0036 17.8862 0.0000 0.0000 0.0000 18.3485 -2.1073 -74.5110 12.1969 18.4726 66.6116 0.6699 -5.3429 -14.5781 5.8270 -14.2586 -44.2836 0.0000 0.0000 0.0000 -0.9264 -12.0021 -43.8684 -12.9773 -18.7739 69.0549 -4.1324 -1.6981 -39.1681 -2.7925 10.3513 -30.1220 0.7459 1.0699 28.1489 -2.9264 1.5601 10.6882 -4.1173 0.9292 -3.4583 15.3206 7.5120 6.7059 -21.4008 8.5024 -27.0926 -10.7837 5.0949 -7.4345 -0.0000 0.0000 0.0000 -78.4221 21.2624 10.7513 33.6127 -43.7957 -13.8443 -0.0000 0.0000 -12.9325 -23.5063 27.8404 -11.4819 -7.1250 0.0000 -0.0000 -52.0894 50.5576 -9.3614 -0.0000 0.0000 0.0000 79.3594 -17.6976 34.8221 -81.1772 59.7038 -52.3668 0.0000 -0.0000 -54.3166 -34.0608 8.9716 -6.0183 7.1250 -0.0000 -0.0000 -5.0733 -19.2131 -3.1334
12.3930 13.9775 -18.2813 -5.2308 22.9991 18.2084 0.0000 0.0000 0.0000 18.0529 -1.8655 -74.8042 12.3765 18.5453 67.1775 0.6890 -5.6871 -14.7897 5.7068 -14.1381 -43.7933 0.0000 0.0000 0.0000 -1.0094 -11.9749 -43.3009 -12.6779 -18.6628 68.1220 -4.1079 -1.5298 -38.9980 -2.5778 9.9780 -28.9055 0.4697 1.1547 27.6352 -3.2473 1.5837 10.6857 -4.3000 0.9456 -3.2158 15.4381 7.2808 7.5339 -20.8893 8.3736 -27.6111 -10.7378 4.9841 -7.8274 -0.0000 0.0000 0.0000 -78.2084 21.7074 8.7853 31.1454 -41.8551 -12.1667 -0.0000 0.0000 -11.3861 -26.1051 28.5144 -13.1658 -7.1250 0.0000 -0.0000 -54.6305 50.5757 -10.1651 -0.0000 0.0000 0.0000 79.1605 -18.8353 35.7422 -74.5184 59.0747 -46.6342 0.0000 -0.0000 -52.2265 -31.9740 12.5383 -7.7175 7.1250 -0.0000 -0.0000 -3.2269 -15.3051 -2.2644
12.4969 13.9901 -18.2013 -5.1068 22.9755 18.5322 0.0000 0.0000 0.0000 17.4362 -1.6000 -75.0553 12.5433 18.6110 67.7010 0.7137 -5.1488 -15.0517 6.1606 -14.5822 -45.6231 0.0000 0.0000 0.0000 -1.2431 -11.9611 -42.5620 -12.3398 -18.5306 67.0619 -4.0493 -1.8150 -38.8125 -2.4431 9.7337 -28.1187 0.0265 1.2827 27.2356 -3.6153 1.6239 10.7038 -4.4462 0.9677 -3.0040 15.5437 7.1662 7.6338 -20.3078 8.3706 -27.6224 -10.5503 4.9076 -7.8936 -0.0000 0.0000 0.0000 -77.6791 22.2650 6.9536 29.2861 -40.2736 -10.9452 -0.0000 0.0000 -9.9683 -27.9134 29.3552 -14.5584 -7.1250 0.0000 -0.0000 -56.7264 50.8292 -11.3015 -0.0000 0.0000 0.0000 78.9544 -19.9617 36.6502 -68.6813 58.2111 -41.6483 0.0000 -0.0000 -50.8887 -30.8818 16.2936 -9.5250 7.1250 -0.0000 -0.0000 -2.0533 -11.1810 -1.6173
